# xmcd
#
# Track frame offsets:
#       180
#       13241
#       29151
#       39771
#       53742
#       67836
#       82769
#       94194
#       106447
#       116668
#       129032
#       143206
#       158643
#       173562
#       187322
#       199614
#
# Disc length: 2806 seconds
#
# Revision: 1
# Processed by: cddbd v1.5.2PL0 Copyright (c) Steve Scherf et al.
# Submitted via: FreeDbEdit v0.1
#
DISCID=cc0af410
DTITLE=Jim and Jesse - From the Heart
DYEAR=1900
DGENRE=
TTITLE0=She's Running Wild
TTITLE1=Texas Fiddeling Man
TTITLE2=The Phase of Life
TTITLE3=My Fondest Memory
TTITLE4=A Real True Love
TTITLE5=I Wish I Could Find a Better Way
TTITLE6=You Pacify My Passions
TTITLE7=Someone Like You
TTITLE8=Louisiana Lady
TTITLE9=Send Me the Pillow That You Dream On
TTITLE10=Bright Lights of Nashville
TTITLE11=Cape May
TTITLE12=The Christmas Waltz
TTITLE13=Music City Lights
TTITLE14=Oklahoma Rose
TTITLE15=A Special Vacancy
EXTD=
EXTT0=
EXTT1=
EXTT2=
EXTT3=
EXTT4=
EXTT5=
EXTT6=
EXTT7=
EXTT8=
EXTT9=
EXTT10=
EXTT11=
EXTT12=
EXTT13=
EXTT14=
EXTT15=
PLAYORDER=
